<svg width="40" height="40" viewBox="0 0 40 40" fill="none" xmlns="http://www.w3.org/2000/svg">
<g filter="url(#filter0_b_21_10944)">
<rect width="40" height="40" fill="url(#paint0_linear_21_10944)" fill-opacity="0.2"/>
<path fill-rule="evenodd" clip-rule="evenodd" d="M20.0016 11.6667C17.7388 11.6667 17.4556 11.6764 16.5667 11.7155C15.6811 11.7546 15.0723 11.8978 14.5448 12.1029C13.9946 12.3178 13.529 12.6011 13.0667 13.0667C12.6011 13.529 12.3178 13.9946 12.1029 14.5416C11.8978 15.0723 11.7546 15.6779 11.7155 16.5634C11.6764 17.4555 11.6667 17.7388 11.6667 20.0016C11.6667 22.2644 11.6764 22.5477 11.7155 23.4365C11.7546 24.3221 11.8978 24.931 12.1029 25.4584C12.3178 26.0087 12.6011 26.4742 13.0667 26.9366C13.529 27.3989 13.9946 27.6854 14.5416 27.897C15.0723 28.1022 15.6779 28.2454 16.5635 28.2845C17.4523 28.3236 17.7356 28.3333 19.9984 28.3333C22.2612 28.3333 22.5444 28.3236 23.4333 28.2845C24.3189 28.2454 24.9277 28.1022 25.4552 27.897C26.0021 27.6854 26.4677 27.3989 26.9301 26.9366C27.3924 26.4742 27.6789 26.0087 27.8905 25.4617C28.0957 24.931 28.2389 24.3254 28.278 23.4398C28.3171 22.5509 28.3268 22.2677 28.3268 20.0049C28.3268 17.7421 28.3171 17.4588 28.278 16.57C28.2389 15.6844 28.0957 15.0755 27.8905 14.5481C27.6854 13.9946 27.4022 13.529 26.9366 13.0667C26.4742 12.6043 26.0087 12.3178 25.4617 12.1062C24.931 11.9011 24.3254 11.7578 23.4398 11.7188C22.5477 11.6764 22.2644 11.6667 20.0016 11.6667ZM20.0016 15.7202C17.6379 15.7202 15.7202 17.6379 15.7202 20.0016C15.7202 22.3654 17.6379 24.2831 20.0016 24.2831C22.3654 24.2831 24.283 22.3654 24.283 20.0016C24.283 17.6379 22.3654 15.7202 20.0016 15.7202ZM20.0016 22.7789C18.4681 22.7789 17.2244 21.5351 17.2244 20.0016C17.2244 18.4681 18.4681 17.2244 20.0016 17.2244C21.5351 17.2244 22.7788 18.4681 22.7788 20.0016C22.7788 21.5351 21.5351 22.7789 20.0016 22.7789ZM24.4524 16.5504C25.0026 16.5504 25.4519 16.1044 25.4519 15.5509C25.4519 15.0007 25.0026 14.5513 24.4524 14.5513C23.9022 14.5513 23.4528 14.9974 23.4528 15.5509C23.4528 16.1011 23.8989 16.5504 24.4524 16.5504Z" fill="white"/>
<rect x="1" y="1" width="38" height="38" stroke="url(#paint1_linear_21_10944)" stroke-opacity="0.4" stroke-width="2"/>
</g>
<defs>
<filter id="filter0_b_21_10944" x="-14" y="-14" width="68" height="68" filterUnits="userSpaceOnUse" color-interpolation-filters="sRGB">
<feFlood flood-opacity="0" result="BackgroundImageFix"/>
<feGaussianBlur in="BackgroundImage" stdDeviation="7"/>
<feComposite in2="SourceAlpha" operator="in" result="effect1_backgroundBlur_21_10944"/>
<feBlend mode="normal" in="SourceGraphic" in2="effect1_backgroundBlur_21_10944" result="shape"/>
</filter>
<linearGradient id="paint0_linear_21_10944" x1="-0.583333" y1="20" x2="40" y2="20" gradientUnits="userSpaceOnUse">
<stop stop-color="white"/>
<stop offset="1" stop-color="white" stop-opacity="0.24"/>
</linearGradient>
<linearGradient id="paint1_linear_21_10944" x1="0" y1="0" x2="40" y2="40" gradientUnits="userSpaceOnUse">
<stop stop-color="white" stop-opacity="0"/>
<stop offset="1" stop-color="white"/>
</linearGradient>
</defs>
</svg>
