<svg width="28" height="28" viewBox="0 0 28 28" fill="none" xmlns="http://www.w3.org/2000/svg">
<path fill-rule="evenodd" clip-rule="evenodd" d="M13.6041 0.100677C13.2291 0.298701 13.1797 0.483052 13.1797 1.68322C13.1797 2.89444 13.2282 3.0707 13.6158 3.26845C13.8891 3.4079 14.1109 3.4079 14.3842 3.26845C14.7718 3.0707 14.8203 2.89444 14.8203 1.68322C14.8203 0.745388 14.8092 0.617966 14.7102 0.42399C14.5084 0.028435 14.0144 -0.11594 13.6041 0.100677ZM4.49367 3.9083C4.27924 3.95183 3.95385 4.3231 3.91174 4.5722C3.84978 4.93905 4.0058 5.18443 4.7921 5.95684C5.34226 6.49726 5.5469 6.66345 5.72852 6.71743C6.34326 6.90009 6.91217 6.33117 6.72952 5.71643C6.67543 5.53443 6.51038 5.3317 5.96892 4.7822C5.58857 4.39622 5.21495 4.04764 5.13871 4.00761C4.97131 3.91962 4.66774 3.87291 4.49367 3.9083ZM22.9414 3.97217C22.8171 4.0314 22.4241 4.38025 22.0311 4.78018C21.4905 5.33033 21.3245 5.53476 21.2705 5.71643C21.0878 6.33117 21.6567 6.90009 22.2715 6.71743C22.4535 6.66334 22.6562 6.4983 23.2057 5.95684C23.5917 5.57648 23.9467 5.19143 23.9946 5.10119C24.3593 4.41443 23.6374 3.6406 22.9414 3.97217ZM12.9735 5.34915C9.18449 5.82651 6.16563 8.67338 5.43665 12.4567C5.28473 13.2452 5.29769 14.8546 5.46224 15.6285C6.03006 18.2993 7.67074 20.49 10.0015 21.6897C12.5449 22.9988 15.393 23.01 17.9348 21.7211C20.1574 20.5939 21.8059 18.5333 22.4251 16.1082C23.1914 13.1068 22.2567 9.87591 19.9971 7.71575C18.7902 6.56195 17.2733 5.7721 15.6551 5.45491C14.9819 5.32295 13.6108 5.26887 12.9735 5.34915ZM15.352 7.07033C16.6404 7.31473 17.9303 7.98891 18.8808 8.91483C20.8399 10.8231 21.5412 13.6263 20.6954 16.1675C19.9895 18.2887 18.3936 19.9118 16.2867 20.6515C15.8932 20.7897 15.0577 20.9879 14.869 20.9879C14.8408 20.9879 14.8203 18.0386 14.8203 13.9879C14.8203 9.93727 14.8408 6.98791 14.869 6.98791C14.8957 6.98791 15.1131 7.02499 15.352 7.07033ZM0.42443 13.2804C0.193539 13.4023 0 13.7249 0 13.9879C0 14.2593 0.19343 14.5743 0.436078 14.6981C0.630055 14.7971 0.757477 14.8082 1.69531 14.8082C2.90653 14.8082 3.08279 14.7597 3.28054 14.3722C3.41999 14.0988 3.41999 13.877 3.28054 13.6037C3.08197 13.2145 2.90795 13.1672 1.68383 13.17C0.741891 13.1722 0.607031 13.184 0.42443 13.2804ZM25.0338 13.2804C24.8029 13.4023 24.6094 13.7249 24.6094 13.9879C24.6094 14.2593 24.8028 14.5743 25.0455 14.6981C25.2394 14.7971 25.3669 14.8082 26.3047 14.8082C27.2425 14.8082 27.3699 14.7971 27.5639 14.6981C27.8066 14.5743 28 14.2593 28 13.9879C28 13.7166 27.8066 13.4015 27.5639 13.2777C27.3691 13.1783 27.2454 13.1678 26.2932 13.17C25.3513 13.1722 25.2164 13.184 25.0338 13.2804ZM5.60547 21.3114C5.31202 21.4488 4.07783 22.7008 3.96337 22.9773C3.83502 23.2872 3.89916 23.5746 4.15352 23.8289C4.39064 24.0661 4.62487 24.1302 4.94293 24.0452C5.12127 23.9974 5.31398 23.8414 5.8718 23.2931C6.78497 22.3954 6.90424 22.1516 6.66859 21.6647C6.58678 21.4957 6.49217 21.4011 6.32319 21.3193C6.03739 21.181 5.88782 21.1793 5.60547 21.3114ZM21.6727 21.3204C21.5087 21.4016 21.411 21.5003 21.3309 21.6658C21.0958 22.1514 21.2155 22.3958 22.1282 23.2931C22.8789 24.0311 23.077 24.1463 23.4621 24.0693C23.6943 24.0229 24.035 23.6822 24.0814 23.45C24.1584 23.0649 24.0431 22.8668 23.3051 22.1161C22.407 21.2025 22.1571 21.0807 21.6727 21.3204ZM13.6041 24.7101C13.2291 24.9081 13.1797 25.0924 13.1797 26.2926C13.1797 27.2304 13.1908 27.3579 13.2898 27.5518C13.4136 27.7945 13.7286 27.9879 14 27.9879C14.2714 27.9879 14.5864 27.7945 14.7102 27.5518C14.8092 27.3579 14.8203 27.2304 14.8203 26.2926C14.8203 25.3548 14.8092 25.2273 14.7102 25.0334C14.5084 24.6378 14.0144 24.4934 13.6041 24.7101Z" fill="#FFF2F2"/>
</svg>
